<svg height="24" viewBox="0 0 24 24" width="24" xmlns="http://www.w3.org/2000/svg"><path d="m20.727 11.676925c1.6737273 0 3.0302727 1.368125 3.0302727 3.055525 0 1.68795-1.3565454 3.056075-3.0302727 3.056075-.054 0-8.3920909-.004125-8.4-.00495-.1808182-.01815-.3248182-.174075-.327-.361075v-9.69815c.0021818-.1782.0627273-.269775.2915455-.35915.5888181-.229625 1.2548181-.3652 1.9385454-.3652 2.7935455 0 5.0836364 2.1604 5.325 4.913975.3605455-.15235.7568182-.23705 1.1719091-.23705zm-10.4908522 6.323075h-.97229556c-.14511873 0-.26385224-.1217972-.26385224-.2706604v-9.95867919c0-.14913389.11873351-.27066041.26385224-.27066041h.97229556c.1451187 0 .2638522.12152652.2638522.27066041v9.95867919c0 .1488632-.1187335.2706604-.2638522.2706604zm-9.00000004-1.5028279h-.97229552c-.14511873 0-.26385224-.1211306-.26385224-.269179v-2.461642c0-.1480485.11873351-.269179.26385224-.269179h.97229552c.14511873 0 .26385224.1211305.26385224.269179v2.461642c0 .1480484-.11873351.269179-.26385224.269179zm6 1.5028279h-.97229552c-.14511873 0-.26385224-.1155836-.26385224-.2568525v-6.486295c0-.1412689.11873351-.2568525.26385224-.2568525h.97229552c.14511873 0 .26385224.1155836.26385224.2568525v6.486295c0 .1412689-.11873351.2568525-.26385224.2568525zm-3 0h-.97229552c-.14511873 0-.26385224-.1128437-.26385224-.2507637v-4.9984726c0-.13792.11873351-.2507637.26385224-.2507637h.97229552c.14511873 0 .26385224.1128437.26385224.2507637v4.9984726c0 .13792-.11873351.2507637-.26385224.2507637z" fill="#f66e10" fill-rule="evenodd"/></svg>